M48
; DRILL file {KiCad 9.0.7} date 2026-02-25T23:21:54+0200
; FORMAT={-:-/ absolute / metric / decimal}
; #@! TF.CreationDate,2026-02-25T23:21:54+02:00
; #@! TF.GenerationSoftware,Kicad,Pcbnew,9.0.7
; #@! TF.FileFunction,MixedPlating,1,2
FMAT,2
METRIC
; #@! TA.AperFunction,Plated,PTH,ComponentDrill
T1C0.800
; #@! TA.AperFunction,Plated,PTH,ComponentDrill
T2C1.000
; #@! TA.AperFunction,NonPlated,NPTH,ComponentDrill
T3C3.200
%
G90
G05
T1
X127.186Y-91.936
X127.261Y-87.826
X127.261Y-95.897
X127.261Y-99.633
X127.336Y-79.831
X127.336Y-83.716
X127.41Y-67.501
X127.41Y-75.646
X127.485Y-71.91
X134.806Y-91.936
X134.881Y-87.826
X134.881Y-95.897
X134.881Y-99.633
X134.956Y-79.831
X134.956Y-83.716
X135.03Y-67.501
X135.03Y-75.646
X135.105Y-71.91
T2
X95.431Y-67.023
X95.431Y-69.563
X95.431Y-72.103
X95.431Y-74.643
X95.431Y-77.183
X95.431Y-79.723
X95.431Y-82.263
X95.431Y-84.803
X95.431Y-87.343
X95.431Y-89.883
X95.431Y-92.423
X95.431Y-94.963
X95.431Y-97.503
X95.431Y-100.043
X95.431Y-102.583
X110.671Y-67.023
X110.671Y-69.563
X110.671Y-72.103
X110.671Y-74.643
X110.671Y-77.183
X110.671Y-79.723
X110.671Y-82.263
X110.671Y-84.803
X110.671Y-87.343
X110.671Y-89.883
X110.671Y-92.423
X110.671Y-94.963
X110.671Y-97.503
X110.671Y-100.043
X110.671Y-102.583
X119.438Y-59.212
X119.526Y-67.584
X119.526Y-71.634
X119.526Y-75.684
X119.787Y-93.043
X119.787Y-97.093
X119.787Y-101.143
X119.862Y-80.474
X119.862Y-84.524
X119.862Y-88.574
X123.488Y-59.212
X127.538Y-59.212
T3
X87.0Y-62.0
X87.0Y-110.0
X133.0Y-62.0
X133.0Y-110.0
M30
